<svg width="100" height="100" viewBox="0 0 100 100" fill="none" xmlns="http://www.w3.org/2000/svg">
<rect width="100" height="100" rx="15" fill="#061574"/>
<path d="M50.448 35.032C52.208 35.032 53.088 35.752 53.088 37.192C53.088 37.64 52.992 38.2 52.8 38.872L51.648 42.76C51.296 43.944 50.864 44.776 50.352 45.256C49.84 45.736 49.104 45.976 48.144 45.976C47.344 45.976 46.72 45.768 46.272 45.352C45.856 44.936 45.456 44.28 45.072 43.384L44.256 41.416C44 40.808 43.728 40.392 43.44 40.168C43.152 39.944 42.704 39.832 42.096 39.832H40.992L34.896 61.288C34.8 61.704 34.752 62.072 34.752 62.392C34.752 62.776 34.8 63.096 34.896 63.352C35.024 63.608 35.2 63.88 35.424 64.168C35.712 64.616 35.856 64.984 35.856 65.272C35.856 65.336 35.824 65.496 35.76 65.752C35.6 66.168 35.28 66.472 34.8 66.664C34.352 66.856 33.696 66.952 32.832 66.952H21.552C20.88 66.952 20.352 66.84 19.968 66.616C19.616 66.392 19.44 66.072 19.44 65.656C19.44 65.464 19.488 65.272 19.584 65.08C19.712 64.792 19.856 64.584 20.016 64.456C20.208 64.296 20.48 64.104 20.832 63.88C21.312 63.592 21.712 63.272 22.032 62.92C22.352 62.568 22.624 62.024 22.848 61.288L28.896 39.832H27.792C27.088 39.832 26.512 39.944 26.064 40.168C25.616 40.392 25.136 40.808 24.624 41.416L23.04 43.384C22.304 44.248 21.584 44.904 20.88 45.352C20.208 45.768 19.472 45.976 18.672 45.976C17.936 45.976 17.36 45.784 16.944 45.4C16.528 45.016 16.32 44.488 16.32 43.816C16.32 43.496 16.368 43.144 16.464 42.76L17.712 38.392C17.968 37.496 18.256 36.824 18.576 36.376C18.896 35.896 19.344 35.56 19.92 35.368C20.528 35.144 21.376 35.032 22.464 35.032H50.448ZM87.8074 35.032C89.5674 35.032 90.4474 35.752 90.4474 37.192C90.4474 37.64 90.3514 38.2 90.1594 38.872L89.0074 42.76C88.6554 43.944 88.2234 44.776 87.7114 45.256C87.1994 45.736 86.4634 45.976 85.5034 45.976C84.7034 45.976 84.0794 45.768 83.6314 45.352C83.2154 44.936 82.8154 44.28 82.4314 43.384L81.6154 41.416C81.3594 40.808 81.0874 40.392 80.7994 40.168C80.5114 39.944 80.0634 39.832 79.4554 39.832H78.3514L72.2554 61.288C72.1594 61.704 72.1114 62.072 72.1114 62.392C72.1114 62.776 72.1594 63.096 72.2554 63.352C72.3834 63.608 72.5594 63.88 72.7834 64.168C73.0714 64.616 73.2154 64.984 73.2154 65.272C73.2154 65.336 73.1834 65.496 73.1194 65.752C72.9594 66.168 72.6394 66.472 72.1594 66.664C71.7114 66.856 71.0554 66.952 70.1914 66.952H58.9114C58.2394 66.952 57.7114 66.84 57.3274 66.616C56.9754 66.392 56.7994 66.072 56.7994 65.656C56.7994 65.464 56.8474 65.272 56.9434 65.08C57.0714 64.792 57.2154 64.584 57.3754 64.456C57.5674 64.296 57.8394 64.104 58.1914 63.88C58.6714 63.592 59.0714 63.272 59.3914 62.92C59.7114 62.568 59.9834 62.024 60.2074 61.288L66.2554 39.832H65.1514C64.4474 39.832 63.8714 39.944 63.4234 40.168C62.9754 40.392 62.4954 40.808 61.9834 41.416L60.3994 43.384C59.6634 44.248 58.9434 44.904 58.2394 45.352C57.5674 45.768 56.8314 45.976 56.0314 45.976C55.2954 45.976 54.7194 45.784 54.3034 45.4C53.8874 45.016 53.6794 44.488 53.6794 43.816C53.6794 43.496 53.7274 43.144 53.8234 42.76L55.0714 38.392C55.3274 37.496 55.6154 36.824 55.9354 36.376C56.2554 35.896 56.7034 35.56 57.2794 35.368C57.8874 35.144 58.7354 35.032 59.8234 35.032H87.8074Z" fill="#0DCAF0"/>
</svg>
